<?xml version="1.0" encoding="UTF-8"?>
<svg id="Capa_2" data-name="Capa 2" xmlns="http://www.w3.org/2000/svg" viewBox="0 0 360.52 50">
  <g id="Capa_1-2" data-name="Capa 1">
    <path d="M21.8,22.1l-3.73,7.48c-2.06,4.11-3.74,7.48-3.74,7.5,0,.02,3.37-1.66,7.49-3.72l7.49-3.75,3.74-7.48c2.06-4.12,3.74-7.49,3.73-7.5s-3.38,1.67-7.49,3.73l-7.48,3.74Zm.19,9.69l-4.77,2.39,2.38-4.77c1.31-2.62,2.39-4.77,2.39-4.77,0,0,1.08,1.07,2.39,2.38l2.38,2.38-4.77,2.39Zm27.76-10.35c-.84-5.9-3.77-11.31-8.25-15.23C37.48,2.68,32.59,.58,27.2,.08c-.63-.06-2.8-.11-3.4-.07-4.86,.26-9.43,1.84-13.31,4.61C4.89,8.62,1.21,14.67,.23,21.45c-.19,1.33-.23,1.98-.23,3.56s.04,2.23,.23,3.56c.57,3.97,2.06,7.69,4.38,10.95,3.98,5.59,10.05,9.28,16.82,10.26,1.33,.19,1.98,.23,3.56,.23s2.23-.04,3.56-.23c3.96-.57,7.7-2.06,10.94-4.37,5.6-4,9.29-10.05,10.26-16.83,.19-1.33,.23-1.98,.23-3.56s-.04-2.23-.23-3.56Zm-5.32,5.98c-.48,3.6-2.08,7.15-4.52,10.07-1.86,2.22-4.16,4.01-6.66,5.19-.7,.33-.88,.4-1.88,.77-1.73,.65-3.01,.95-4.67,1.1-.67,.06-2.37,.06-3.03,0-4.18-.39-8.14-2.08-11.45-4.88-.56-.47-1.97-1.9-2.4-2.43-1.12-1.38-1.94-2.66-2.61-4.12-.3-.66-.96-2.35-1.13-2.89-.57-1.88-.8-3.73-.72-5.71,.3-7,4.76-13.87,11.12-17.1,2.09-1.06,4.34-1.69,6.58-1.84,1.37-.09,3.15-.1,3.97-.02,4.26,.41,8.26,2.31,11.5,5.47,1.65,1.61,2.95,3.4,3.97,5.47,.71,1.43,1.09,2.5,1.51,4.26,.4,1.68,.5,2.41,.53,3.96,.02,1.17,0,1.8-.13,2.71Z"/>
    <path d="M133.58,19.56s-.02-.03-.03-.04c-.69-.89-1.54-1.56-2.54-2.01-.99-.47-2.15-.7-3.48-.7s-2.45,.26-3.48,.78c-1.03,.51-1.91,1.24-2.64,2.19-.72,.95-1.27,2.09-1.66,3.42-.38,1.32-.57,2.78-.57,4.4v.41c0,1.54,.19,2.96,.57,4.28,.39,1.3,.95,2.44,1.68,3.4,.73,.96,1.6,1.71,2.62,2.25,1.03,.53,2.18,.8,3.44,.8,1.34,0,2.51-.23,3.52-.68,.94-.44,1.74-1.08,2.4-1.88v1.9c0,1.22-.23,2.25-.7,3.09-.46,.85-1.1,1.49-1.94,1.92-.83,.43-1.82,.65-2.97,.65-.95,0-1.92-.21-2.89-.63-.96-.42-1.89-1.16-2.78-2.23l-1.9,2.15c.64,.91,1.43,1.64,2.37,2.17,.95,.55,1.92,.93,2.89,1.15,.99,.23,1.85,.35,2.58,.35,1.76,0,3.31-.35,4.65-1.04,1.36-.68,2.41-1.67,3.17-2.99,.76-1.32,1.13-2.91,1.13-4.77V17.19h-3.28l-.17,2.37Zm-.16,12.88c-.07,.15-.13,.31-.22,.45-.46,.83-1.07,1.51-1.86,2.01-.78,.51-1.77,.76-2.97,.76-.98,0-1.82-.2-2.52-.59-.7-.4-1.28-.96-1.74-1.66-.44-.7-.78-1.52-1-2.44-.21-.93-.31-1.92-.31-2.97v-.41c0-1.06,.1-2.05,.31-2.97,.22-.94,.55-1.76,1-2.46,.46-.72,1.04-1.28,1.74-1.68,.72-.42,1.57-.63,2.56-.63,.91,0,1.71,.16,2.38,.47,.68,.31,1.24,.74,1.7,1.27,.37,.41,.66,.88,.92,1.39v9.46Zm226.28-2.87c-.55-.79-1.38-1.47-2.5-2.01-1.12-.55-2.55-1.02-4.28-1.41-.99-.22-1.8-.44-2.44-.66-.64-.22-1.13-.46-1.48-.7-.35-.26-.6-.54-.74-.84-.13-.31-.2-.66-.2-1.06,0-.52,.14-1.02,.41-1.49,.29-.47,.74-.85,1.35-1.15,.63-.31,1.44-.47,2.44-.47,.95,0,1.75,.18,2.4,.55,.66,.36,1.17,.83,1.5,1.39,.35,.55,.53,1.11,.53,1.7h3.62c0-1.21-.32-2.31-.96-3.3-.64-1-1.56-1.8-2.76-2.4s-2.65-.9-4.34-.9c-1.19,0-2.26,.16-3.23,.49s-1.79,.78-2.48,1.35c-.68,.57-1.21,1.23-1.58,1.97-.36,.74-.55,1.53-.55,2.37s.18,1.64,.53,2.29c.35,.65,.85,1.22,1.5,1.7,.67,.48,1.47,.89,2.41,1.23,.95,.34,2.01,.63,3.19,.88,1.39,.27,2.44,.6,3.13,.98,.7,.36,1.17,.78,1.39,1.23,.23,.44,.35,.93,.35,1.45,0,.59-.18,1.11-.53,1.56-.35,.46-.87,.81-1.54,1.08-.66,.26-1.49,.39-2.48,.39-.74,0-1.49-.12-2.25-.35-.76-.25-1.39-.66-1.92-1.23-.52-.59-.81-1.37-.86-2.37h-3.63c0,1.17,.33,2.29,1,3.34,.67,1.06,1.64,1.92,2.93,2.58,1.29,.66,2.87,1,4.73,1,1.24,0,2.35-.15,3.34-.45,1-.31,1.86-.74,2.58-1.29,.73-.56,1.28-1.22,1.66-1.99,.39-.77,.59-1.62,.59-2.54,0-1.13-.27-2.1-.82-2.89Zm-21.4-9.79c-.7-.94-1.61-1.67-2.72-2.19-1.09-.52-2.4-.78-3.91-.78-1.19,0-2.33,.24-3.44,.72-1.11,.48-2.1,1.19-2.97,2.13-.87,.94-1.56,2.08-2.07,3.44-.51,1.34-.76,2.87-.76,4.59v.82c0,1.49,.23,2.85,.68,4.1,.46,1.25,1.11,2.33,1.95,3.24,.86,.91,1.88,1.62,3.07,2.13,1.2,.49,2.53,.74,4.01,.74,1.39,0,2.6-.2,3.62-.59,1.03-.39,1.9-.9,2.6-1.52,.7-.63,1.28-1.28,1.74-1.97l-2.19-1.74c-.66,.87-1.44,1.57-2.33,2.09-.89,.52-1.97,.78-3.24,.78-.99,0-1.88-.19-2.66-.57-.77-.38-1.43-.9-1.97-1.56-.53-.66-.95-1.43-1.23-2.31-.25-.8-.37-1.66-.39-2.56h14.29v-1.62c0-1.49-.17-2.85-.51-4.1-.34-1.26-.86-2.36-1.56-3.28Zm-1.54,6.06h-10.58c.07-.54,.17-1.05,.3-1.52,.27-.98,.66-1.8,1.15-2.48,.5-.68,1.09-1.19,1.78-1.52,.69-.35,1.45-.53,2.27-.53,1.24,0,2.21,.29,2.93,.86,.72,.57,1.24,1.3,1.56,2.19,.34,.89,.53,1.8,.59,2.74v.27Zm-178.14,7.9v-9.85c0-1.58-.34-2.89-1.02-3.93-.67-1.06-1.59-1.84-2.78-2.37-1.17-.52-2.53-.78-4.06-.78-1.28,0-2.44,.18-3.48,.55-1.03,.35-1.92,.83-2.66,1.45-.73,.6-1.29,1.27-1.68,2.01-.39,.74-.59,1.49-.59,2.25h3.62c0-.59,.19-1.13,.57-1.64,.39-.51,.93-.92,1.6-1.23,.69-.31,1.49-.47,2.4-.47,.98,0,1.8,.17,2.46,.51,.66,.34,1.16,.82,1.48,1.45,.34,.61,.51,1.34,.51,2.17v1.68h-3.58c-1.45,0-2.76,.15-3.93,.45-1.17,.3-2.18,.74-3.01,1.33-.83,.57-1.47,1.3-1.92,2.17-.44,.86-.66,1.86-.66,2.99s.29,2.23,.88,3.19c.6,.94,1.43,1.69,2.5,2.25,1.08,.56,2.34,.84,3.77,.84,1.15,0,2.18-.2,3.09-.59,.93-.4,1.72-.91,2.39-1.51,.21-.19,.39-.39,.57-.59,.02,.22,.02,.4,.05,.63,.1,.69,.25,1.24,.43,1.66h3.77v-.31c-.25-.57-.44-1.26-.57-2.05-.12-.79-.18-1.54-.18-2.25Zm-3.62-1.39c-.13,.26-.27,.53-.47,.8-.5,.68-1.17,1.25-2.01,1.72-.85,.47-1.82,.7-2.93,.7-.89,0-1.64-.16-2.25-.47-.6-.33-1.05-.76-1.35-1.31-.3-.55-.45-1.15-.45-1.82s.14-1.22,.43-1.7c.29-.5,.7-.91,1.25-1.23,.55-.33,1.22-.57,2.03-.72,.81-.17,1.73-.25,2.76-.25h2.99v4.28Zm-66.51,6h3.64V17.19h-3.64v21.15Zm-6.82-12.57c-.76-.7-1.72-1.34-2.89-1.9-1.17-.56-2.57-1.07-4.18-1.52-1.17-.33-2.18-.66-3.03-1.02-.83-.35-1.52-.74-2.07-1.15-.53-.42-.93-.87-1.19-1.35-.25-.5-.37-1.04-.37-1.64,0-.89,.21-1.67,.63-2.37,.43-.69,1.08-1.24,1.95-1.64,.87-.4,1.98-.61,3.32-.61,1.42,0,2.59,.24,3.52,.72,.92,.47,1.62,1.12,2.07,1.95,.46,.82,.68,1.77,.68,2.83h3.75c0-1.49-.39-2.88-1.17-4.18-.78-1.32-1.92-2.38-3.42-3.19-1.49-.82-3.3-1.23-5.43-1.23-1.46,0-2.78,.2-3.97,.59-1.19,.39-2.21,.94-3.07,1.64-.85,.69-1.5,1.5-1.95,2.44-.46,.94-.68,1.96-.68,3.07s.22,2.09,.65,2.95c.43,.86,1.05,1.62,1.86,2.29,.81,.66,1.78,1.26,2.91,1.78,1.13,.51,2.4,.97,3.81,1.39,1.34,.39,2.45,.78,3.32,1.15,.89,.38,1.58,.78,2.07,1.19,.51,.42,.86,.89,1.06,1.41,.21,.51,.31,1.09,.31,1.76,0,.93-.24,1.73-.72,2.4-.47,.68-1.16,1.2-2.07,1.56-.91,.36-2.03,.55-3.34,.55-.91,0-1.79-.1-2.64-.31-.83-.22-1.58-.56-2.25-1.02-.65-.46-1.17-1.03-1.54-1.72-.38-.7-.57-1.54-.57-2.52h-3.75c0,1.42,.31,2.67,.92,3.75,.63,1.07,1.45,1.97,2.48,2.7,1.04,.73,2.2,1.28,3.46,1.64,1.28,.36,2.57,.55,3.89,.55,1.5,0,2.85-.18,4.07-.53,1.22-.36,2.27-.88,3.15-1.54,.87-.66,1.54-1.47,2.01-2.4,.47-.94,.7-1.99,.7-3.15s-.19-2.1-.57-2.97c-.36-.89-.93-1.67-1.7-2.37Zm234.37-7.21c-.59-.61-1.3-1.06-2.13-1.33-.83-.29-1.77-.43-2.81-.43-1.28,0-2.44,.25-3.5,.76-1.04,.5-1.94,1.2-2.7,2.11-.04,.05-.08,.12-.12,.18l-.12-2.66h-3.42v21.15h3.62v-15.06c.23-.47,.49-.91,.8-1.3,.53-.66,1.17-1.19,1.9-1.56,.74-.38,1.56-.57,2.46-.57s1.68,.16,2.31,.47c.63,.3,1.1,.79,1.43,1.47,.33,.66,.49,1.55,.49,2.66v13.9h3.63v-13.86c0-1.39-.16-2.57-.47-3.54-.31-.98-.77-1.77-1.37-2.38Zm-136,1.21c-.7-.95-1.57-1.68-2.6-2.19-1.03-.52-2.21-.78-3.54-.78s-2.5,.23-3.52,.7c-1.02,.46-1.88,1.13-2.6,2.01l-.18-2.32h-3.32v29.28h3.64v-10.21c.69,.78,1.51,1.39,2.48,1.81,1.03,.44,2.21,.66,3.56,.66s2.48-.27,3.5-.8c1.02-.53,1.87-1.28,2.56-2.25,.7-.96,1.24-2.1,1.6-3.4,.37-1.32,.55-2.74,.55-4.28v-.41c0-1.62-.18-3.08-.55-4.4-.35-1.33-.88-2.47-1.58-3.42Zm-1.51,8.23c0,1.06-.11,2.05-.33,2.99-.22,.92-.57,1.75-1.04,2.46-.46,.72-1.04,1.28-1.76,1.7-.7,.4-1.54,.61-2.52,.61-1.19,0-2.17-.24-2.95-.72-.78-.49-1.41-1.14-1.88-1.93-.05-.09-.09-.18-.14-.27v-10.02c.24-.44,.51-.85,.84-1.22,.47-.53,1.04-.96,1.7-1.27,.68-.31,1.47-.47,2.39-.47,.99,0,1.84,.21,2.56,.63,.72,.4,1.3,.96,1.76,1.68,.47,.7,.81,1.52,1.04,2.46,.22,.93,.33,1.92,.33,2.97v.41ZM90.34,9.49c-.7,0-1.24,.2-1.6,.61-.35,.4-.53,.9-.53,1.49s.18,1.04,.53,1.45c.36,.39,.9,.59,1.6,.59s1.22-.2,1.58-.59c.38-.4,.57-.89,.57-1.45s-.19-1.08-.57-1.49c-.36-.4-.89-.61-1.58-.61Zm22.38,9.07c-.59-.61-1.3-1.06-2.13-1.33-.83-.29-1.77-.43-2.81-.43-1.28,0-2.44,.25-3.5,.76-1.04,.5-1.94,1.2-2.7,2.11-.04,.05-.08,.12-.12,.18l-.12-2.66h-3.42v21.15h3.62v-15.06c.23-.47,.49-.91,.8-1.3,.53-.66,1.17-1.19,1.9-1.56,.74-.38,1.56-.57,2.46-.57s1.68,.16,2.31,.47c.63,.3,1.1,.79,1.43,1.47,.33,.66,.49,1.55,.49,2.66v13.9h3.64v-13.86c0-1.39-.16-2.57-.47-3.54-.31-.98-.77-1.77-1.37-2.38Zm169.34,19.78h3.63V8.32h-3.63v30.02Zm-5.24-21.54c-1.15,0-2.14,.25-2.97,.74-.82,.48-1.5,1.16-2.03,2.03,0,.02-.02,.04-.03,.05l-.07-2.44h-3.52v21.15h3.62v-15.01c.25-.6,.58-1.13,1-1.57,.44-.47,.98-.83,1.62-1.09,.64-.26,1.37-.39,2.21-.39,.34,0,.64,.01,.9,.04,.27,.01,.56,.05,.86,.12l.02-3.36c-.13-.07-.37-.12-.7-.18-.34-.07-.64-.1-.9-.1Zm14.97,21.54h3.64V17.19h-3.64v21.15Zm1.86-28.85c-.7,0-1.24,.2-1.6,.61-.35,.4-.53,.9-.53,1.49s.18,1.04,.53,1.45c.37,.39,.9,.59,1.6,.59s1.22-.2,1.58-.59c.38-.4,.57-.89,.57-1.45s-.19-1.08-.57-1.49c-.37-.4-.89-.61-1.58-.61Zm-50.16,.39h-2.48l-10.85,28.46h3.85l2.7-7.45h11.9l2.71,7.45h3.87l-10.89-28.46h-.82Zm-5.65,17.92l4.82-13.28,4.83,13.28h-9.66Zm22.77-18.31c-.7,0-1.24,.2-1.6,.61-.35,.4-.53,.9-.53,1.49s.18,1.04,.53,1.45c.37,.39,.9,.59,1.6,.59s1.22-.2,1.58-.59c.38-.4,.57-.89,.57-1.45s-.19-1.08-.57-1.49c-.36-.4-.89-.61-1.58-.61Zm-60.9,23.05c-.4,.92-1.01,1.67-1.86,2.24-.9,.59-2.12,.88-3.65,.88-.5,0-.98-.07-1.45-.21-.46-.14-.87-.39-1.25-.74-.37-.36-.66-.85-.88-1.47-.21-.63-.31-1.41-.31-2.37v-13.68h-3.62v13.64c0,1.41,.16,2.61,.49,3.62,.34,1,.81,1.82,1.43,2.44s1.34,1.09,2.19,1.39c.86,.3,1.8,.45,2.83,.45,1.51,0,2.8-.24,3.85-.72,.94-.44,1.7-1.06,2.33-1.81l.08,2.14h3.46V17.19h-3.64v15.35Zm17.77-15.74c-1.15,0-2.14,.25-2.97,.74-.82,.48-1.5,1.16-2.03,2.03-.01,.02-.02,.04-.03,.05l-.07-2.44h-3.52v21.15h3.62v-15.01c.25-.6,.58-1.13,1-1.57,.44-.47,.98-.83,1.62-1.09,.64-.26,1.37-.39,2.21-.39,.34,0,.64,.01,.9,.04,.27,.01,.56,.05,.86,.12l.02-3.36c-.13-.07-.37-.12-.7-.18-.34-.07-.64-.1-.9-.1Zm41.28,21.54h3.63V17.19h-3.63v21.15Z"/>
  </g>
</svg>